<svg xmlns="http://www.w3.org/2000/svg" viewBox="0 0 541.13 110.62"><defs><style>.cls-1{fill:#1c1f77;}</style></defs><g id="Layer_2" data-name="Layer 2"><g id="Layer_1-2" data-name="Layer 1"><path d="M140.19,82.88a21.76,21.76,0,0,1-10.09-2.17,15.85,15.85,0,0,1-6.41-5.82,15.09,15.09,0,0,1-2.23-8V33.2a5.7,5.7,0,0,0-.63-3,1.88,1.88,0,0,0-1.61-1,.43.43,0,0,1-.28-.13.38.38,0,0,1-.13-.28.31.31,0,0,1,.13-.28.5.5,0,0,1,.28-.1h9.87a.49.49,0,0,1,.3.1.35.35,0,0,1,.11.28.45.45,0,0,1-.11.28.42.42,0,0,1-.3.13,1.93,1.93,0,0,0-1.61,1,5.4,5.4,0,0,0-.67,3V66.84a15.53,15.53,0,0,0,1.87,7.21,13,13,0,0,0,5.14,5.14,16.33,16.33,0,0,0,8.24,1.93,15.48,15.48,0,0,0,8.11-2,14.39,14.39,0,0,0,5.25-5.29,13.76,13.76,0,0,0,1.85-7V33.2a5.59,5.59,0,0,0-.65-3,1.92,1.92,0,0,0-1.63-1,.43.43,0,0,1-.28-.13.38.38,0,0,1-.13-.28.31.31,0,0,1,.13-.28.5.5,0,0,1,.28-.1h6.13a.45.45,0,0,1,.3.1.4.4,0,0,1-.07.61,1.36,1.36,0,0,1-.49.08c-.55,0-1,.39-1.4,1.18a6.25,6.25,0,0,0-.58,2.82V66.84a15.84,15.84,0,0,1-2.11,8,15.11,15.11,0,0,1-6.28,5.82A22.2,22.2,0,0,1,140.19,82.88Z"/><path d="M212.61,81.79H211L175.23,34.73V77a5.69,5.69,0,0,0,.65,3,1.92,1.92,0,0,0,1.63,1,.49.49,0,0,1,.3.09.36.36,0,0,1,.11.28.45.45,0,0,1-.11.28.38.38,0,0,1-.3.13h-6.13a.45.45,0,0,1-.41-.41c0-.2.06-.31.18-.34a3.28,3.28,0,0,1,.49,0c.55,0,1-.4,1.4-1.18a6.4,6.4,0,0,0,.58-2.86V32.64l-3.21-4.26h6.43L211,72.52V33.2a5.7,5.7,0,0,0-.63-3,1.88,1.88,0,0,0-1.61-1,.41.41,0,0,1-.28-.13.38.38,0,0,1-.13-.28.35.35,0,0,1,.13-.3.38.38,0,0,1,.28-.11h6.13a.4.4,0,0,1,.3.11.41.41,0,0,1,.11.3.31.31,0,0,1-.19.33,1.26,1.26,0,0,1-.48.08c-.55,0-1,.39-1.42,1.18a6.12,6.12,0,0,0-.6,2.82Z"/><path d="M252.39,83.1a25.4,25.4,0,0,1-13.49-3.76A28.57,28.57,0,0,1,229,69.27a27.92,27.92,0,0,1,0-27.92,29,29,0,0,1,10-10.08,25.69,25.69,0,0,1,13.53-3.75,30.59,30.59,0,0,1,6.49.63,37.07,37.07,0,0,1,5.1,1.48c1.47.56,2.7,1.08,3.7,1.55a7.62,7.62,0,0,0,2.84,1c.2,0,.35-.15.43-.45a3,3,0,0,0,.13-.86c0-.22.13-.35.38-.37s.35.12.37.37v9.05c-.05.25-.15.37-.3.37a.55.55,0,0,1-.45-.3,35.83,35.83,0,0,0-2.52-3,31,31,0,0,0-4.07-3.61,24.41,24.41,0,0,0-5.46-3.06,17.73,17.73,0,0,0-17.29,2.35,24.86,24.86,0,0,0-7.44,9.55,30.87,30.87,0,0,0-2.73,13,32.64,32.64,0,0,0,1.52,10,27.29,27.29,0,0,0,4.28,8.36,20.82,20.82,0,0,0,6.56,5.7,17.07,17.07,0,0,0,8.31,2.07,17.69,17.69,0,0,0,6.68-1.23,24.71,24.71,0,0,0,5.44-3,30.54,30.54,0,0,0,4.05-3.55A41.87,41.87,0,0,0,272,69.46v8a27.51,27.51,0,0,1-4.82,2.81,34.57,34.57,0,0,1-6.11,1.94A38.65,38.65,0,0,1,252.39,83.1Z"/><path d="M307.54,83.1a24.94,24.94,0,0,1-13.42-3.76,28,28,0,0,1-9.66-10,27.63,27.63,0,0,1-3.6-14,27.6,27.6,0,0,1,3.6-14,28.08,28.08,0,0,1,9.66-10.06,25.9,25.9,0,0,1,26.88,0,27.91,27.91,0,0,1,9.66,10.06,27.51,27.51,0,0,1,3.61,14,27.54,27.54,0,0,1-3.61,14,27.88,27.88,0,0,1-9.66,10A25,25,0,0,1,307.54,83.1Zm0-1.61a16.74,16.74,0,0,0,8.28-2.07,20.32,20.32,0,0,0,6.41-5.7,27.26,27.26,0,0,0,4.15-8.36,35,35,0,0,0,0-20.07,27.68,27.68,0,0,0-4.16-8.35,20.29,20.29,0,0,0-6.43-5.71,17.34,17.34,0,0,0-16.43,0,20.51,20.51,0,0,0-6.43,5.71,27.51,27.51,0,0,0-4.19,8.35,35.1,35.1,0,0,0,0,20.07,27.47,27.47,0,0,0,4.14,8.36,20.38,20.38,0,0,0,6.43,5.7A16.77,16.77,0,0,0,307.54,81.49Z"/><path d="M377.57,81.79h-34a.37.37,0,0,1-.28-.13.4.4,0,0,1-.14-.28c0-.2.07-.31.21-.34a3.28,3.28,0,0,1,.47,0c.55,0,1-.4,1.4-1.18A6.54,6.54,0,0,0,345.8,77V33.2a5.6,5.6,0,0,0-.64-3,1.86,1.86,0,0,0-1.6-1,.41.41,0,0,1-.28-.13.4.4,0,0,1-.14-.28.36.36,0,0,1,.14-.3.38.38,0,0,1,.28-.11h9.86a.37.37,0,0,1,.3.11.38.38,0,0,1,.12.3.32.32,0,0,1-.19.33,1.36,1.36,0,0,1-.49.08c-.55,0-1,.39-1.42,1.18a6.12,6.12,0,0,0-.6,2.82v47H368a14.83,14.83,0,0,0,6.73-1.4c1.87-.93,3-2.11,3.25-3.53a.49.49,0,0,1,.15-.24.39.39,0,0,1,.27-.1c.22,0,.34.13.37.38Z"/><path d="M399.56,81.79H389.7c-.23,0-.35-.12-.38-.37s.13-.35.38-.38a1.9,1.9,0,0,0,1.62-1,5.73,5.73,0,0,0,.66-3V30h-5.72a15,15,0,0,0-6.58,1.37c-1.9.91-3,2-3.29,3.34a.28.28,0,0,0,0,.15,2.39,2.39,0,0,1-.13.3c0,.08-.13.11-.28.11s-.41-.15-.41-.44l1.16-6.47h35.88l1.16,6.47c0,.29-.14.44-.41.44s-.24,0-.28-.11a2.39,2.39,0,0,1-.13-.3.28.28,0,0,0,0-.15q-.48-2-3.31-3.34A14.9,14.9,0,0,0,403,30h-5.72V77a6.66,6.66,0,0,0,.58,2.86c.39.81.86,1.21,1.41,1.21h.29c.23,0,.35.13.38.38S399.81,81.77,399.56,81.79Z"/><path d="M457.07,81.79H423a.31.31,0,0,1-.26-.15.47.47,0,0,1-.11-.3,1.06,1.06,0,0,1,.16-.3.29.29,0,0,1,.21-.11,2,2,0,0,0,1.64-.93,5.3,5.3,0,0,0,.68-3V33.2a6.12,6.12,0,0,0-.6-2.84c-.4-.78-.87-1.16-1.42-1.16a1.32,1.32,0,0,1-.51-.08c-.11-.05-.16-.17-.16-.37a.94.94,0,0,1,.16-.3.29.29,0,0,1,.21-.11h34.09l1.12,6.47a.41.41,0,0,1-.09.28.69.69,0,0,1-.32.13.45.45,0,0,1-.26-.08.31.31,0,0,1-.15-.19,3.19,3.19,0,0,0-1.5-2.54,11.48,11.48,0,0,0-3.77-1.77,16.73,16.73,0,0,0-4.67-.66H430.64V54.32h16.52A6.06,6.06,0,0,0,450,53.7c.77-.41,1.15-.9,1.15-1.48a1.35,1.35,0,0,1,.06-.43c0-.11.14-.16.32-.16h.07a.31.31,0,0,1,.28.13.44.44,0,0,1,.1.24v6.13a.5.5,0,0,1-.1.28.27.27,0,0,1-.24.13,1.87,1.87,0,0,1-.36-.09c-.08,0-.13-.15-.13-.32a1.83,1.83,0,0,0-1-1.59,5.81,5.81,0,0,0-3-.62H430.64V80.18h16.79A15,15,0,0,0,454,78.82q2.85-1.36,3.37-3.38a.46.46,0,0,1,.52-.53.45.45,0,0,1,.3.45Z"/><path d="M488.52,81.79h-21a.4.4,0,0,1-.28-.13.43.43,0,0,1-.13-.28c0-.2.07-.31.21-.34a3.28,3.28,0,0,1,.47,0c.54,0,1-.4,1.4-1.18a6.45,6.45,0,0,0,.58-2.82V33.2a5.6,5.6,0,0,0-.64-3,1.87,1.87,0,0,0-1.61-1,.45.45,0,0,1-.28-.13.43.43,0,0,1-.13-.28.38.38,0,0,1,.13-.3.42.42,0,0,1,.28-.11h21A25.77,25.77,0,0,1,501.94,32a27.37,27.37,0,0,1,9.66,9.67,25.72,25.72,0,0,1,3.61,13.45,25.69,25.69,0,0,1-3.61,13.42,27.26,27.26,0,0,1-9.66,9.66A25.69,25.69,0,0,1,488.52,81.79Zm0-1.61A17.6,17.6,0,0,0,499,76.8a23.85,23.85,0,0,0,7.53-9.08,28.2,28.2,0,0,0,2.8-12.62,28.27,28.27,0,0,0-2.8-12.65A23.85,23.85,0,0,0,499,33.37,17.61,17.61,0,0,0,488.52,30H475.14l-.08,50.2Z"/><path d="M531.68,47.59a9.45,9.45,0,1,1,9.45-9.45A9.46,9.46,0,0,1,531.68,47.59Zm0-17.19a7.75,7.75,0,1,0,7.75,7.74A7.75,7.75,0,0,0,531.68,30.4Z"/><path d="M533.52,43.09a4.41,4.41,0,0,1-.27-1.12c0-.34,0-.72,0-1.13A1.64,1.64,0,0,0,533,40a1,1,0,0,0-.43-.43,1.54,1.54,0,0,0-.63-.17c-.24,0-.49,0-.74,0h-1.45v3.69h-2.14V33.2h4.21a5.52,5.52,0,0,1,1.58.2,2.79,2.79,0,0,1,1,.57,2.18,2.18,0,0,1,.58.89,3.8,3.8,0,0,1,.17,1.15,2.68,2.68,0,0,1-.19,1.06,2,2,0,0,1-.51.75,2.11,2.11,0,0,1-.74.44,2.66,2.66,0,0,1-.9.15v.21a5.07,5.07,0,0,1,.7.06,2.37,2.37,0,0,1,.8.27,2,2,0,0,1,.67.64,2.09,2.09,0,0,1,.27,1.14A9.08,9.08,0,0,0,535.4,42a3.83,3.83,0,0,0,.31,1.13Zm-1.89-5.53a3.15,3.15,0,0,0,.52-.05,1.19,1.19,0,0,0,.47-.22,1.25,1.25,0,0,0,.35-.43,1.56,1.56,0,0,0,.13-.7,1.23,1.23,0,0,0-.13-.63.86.86,0,0,0-.37-.34,1.53,1.53,0,0,0-.55-.14c-.2,0-.42,0-.65,0h-1.61v2.56Z"/><path class="cls-1" d="M93.9,24.65,53.09,1.1a8.16,8.16,0,0,0-8.19,0L4.09,24.65A8.21,8.21,0,0,0,0,31.75V78.87A8.19,8.19,0,0,0,4.09,86L44.9,109.52a8.2,8.2,0,0,0,8.19,0L93.9,86A8.19,8.19,0,0,0,98,78.87V31.75A8.21,8.21,0,0,0,93.9,24.65ZM66,35.27a2,2,0,0,1-.72.12,1.28,1.28,0,0,0-.29.42,4.1,4.1,0,0,0-.36,1.82V64.12a13.37,13.37,0,0,1-1.79,6.81,12.83,12.83,0,0,1-5.31,4.93A18.49,18.49,0,0,1,49,77.67a18.11,18.11,0,0,1-8.37-1.81A13.38,13.38,0,0,1,35.23,71a12.93,12.93,0,0,1-1.89-6.83V37.63A3.57,3.57,0,0,0,33,35.74c-.23-.35-.4-.35-.5-.35a1.23,1.23,0,0,1-.87-.37,1.27,1.27,0,0,1-.37-.87,1.19,1.19,0,0,1,.49-1,1.31,1.31,0,0,1,.75-.24h7.77a1.23,1.23,0,0,1,.82.29,1.14,1.14,0,0,1,.43.92,1.25,1.25,0,0,1-.32.83,1.19,1.19,0,0,1-.93.41c-.06,0-.25,0-.51.37a3.46,3.46,0,0,0-.37,1.87V64.12a11.63,11.63,0,0,0,1.37,5.25,9.55,9.55,0,0,0,3.69,3.69,12.1,12.1,0,0,0,6,1.4A11.33,11.33,0,0,0,56.4,73a10.51,10.51,0,0,0,3.81-3.83,10,10,0,0,0,1.34-5V37.63a3.48,3.48,0,0,0-.36-1.88c-.24-.36-.43-.36-.52-.36A1.23,1.23,0,0,1,59.8,35a1.19,1.19,0,0,1-.37-.87,1.18,1.18,0,0,1,.49-1,1.29,1.29,0,0,1,.75-.24H65.5a1.31,1.31,0,0,1,.82.28,1.2,1.2,0,0,1,.42.93A1.18,1.18,0,0,1,66,35.27Z"/></g></g></svg>