<svg xmlns="http://www.w3.org/2000/svg" xmlns:xlink="http://www.w3.org/1999/xlink" viewBox="0 0 450 450" width="450" height="450" preserveAspectRatio="xMidYMid meet" style="width: 100%; height: 100%; transform: translate3d(0px, 0px, 0px); content-visibility: visible;"><defs><clipPath id="__lottie_element_1986"><rect width="450" height="450" x="0" y="0"></rect></clipPath><g id="__lottie_element_1988"><g transform="matrix(0.9369999766349792,0,0,0.9369999766349792,225,161.75250244140625)" opacity="1" style="display: block;"><g opacity="1" transform="matrix(1,0,0,1,0,0)"><path fill="rgb(242,242,242)" fill-opacity="1" d=" M200,-132.5 C200,-132.5 200,132.5 200,132.5 C200,132.5 -200,132.5 -200,132.5 C-200,132.5 -200,-132.5 -200,-132.5 C-200,-132.5 200,-132.5 200,-132.5z"></path></g></g></g><mask id="__lottie_element_1988_1" mask-type="alpha"><use xlink:href="#__lottie_element_1988"></use></mask><linearGradient id="__lottie_element_2039" spreadMethod="pad" gradientUnits="userSpaceOnUse" x1="26.1560001373291" y1="-6.810999870300293" x2="-22.41200065612793" y2="7.584000110626221"><stop offset="0%" stop-color="rgb(255,255,255)"></stop><stop offset="26%" stop-color="rgb(239,239,239)"></stop><stop offset="52%" stop-color="rgb(223,223,223)"></stop><stop offset="76%" stop-color="rgb(172,172,172)"></stop><stop offset="100%" stop-color="rgb(121,121,121)"></stop></linearGradient><linearGradient id="__lottie_element_2045" spreadMethod="pad" gradientUnits="userSpaceOnUse" x1="-33.5" y1="14.777999877929688" x2="41.22100067138672" y2="-25.381000518798828"><stop offset="0%" stop-color="rgb(251,173,65)"></stop><stop offset="31%" stop-color="rgb(249,151,48)"></stop><stop offset="53%" stop-color="rgb(246,130,31)"></stop><stop offset="76%" stop-color="rgb(250,116,41)"></stop><stop offset="100%" stop-color="rgb(255,102,51)"></stop></linearGradient><g id="__lottie_element_2049"><g style="display: block;" transform="matrix(0.9369999766349792,0,0,0.9369999766349792,225,225)" opacity="1"><g opacity="1" transform="matrix(1,0,0,1,0,0)"><path fill="rgb(255,0,0)" fill-opacity="1" d=" M0,-98.6500015258789 C54.4449348449707,-98.6500015258789 98.6500015258789,-54.4449348449707 98.6500015258789,0 C98.6500015258789,54.4449348449707 54.4449348449707,98.6500015258789 0,98.6500015258789 C-54.4449348449707,98.6500015258789 -98.6500015258789,54.4449348449707 -98.6500015258789,0 C-98.6500015258789,-54.4449348449707 -54.4449348449707,-98.6500015258789 0,-98.6500015258789z"></path></g></g></g><clipPath id="__lottie_element_2053"><path fill="#ffffff" clip-rule="nonzero" d=" M-5,-5 C-5,-5 -5.045000076293945,85.38600158691406 -5.045000076293945,85.38600158691406 C-5.045000076293945,85.38600158691406 159.83999633789062,85.38600158691406 159.83999633789062,85.38600158691406 C159.83999633789062,85.38600158691406 159.88499450683594,-5 159.88499450683594,-5 C159.88499450683594,-5 -5,-5 -5,-5" fill-opacity="1"></path></clipPath><mask id="__lottie_element_2049_1" mask-type="alpha"><use xlink:href="#__lottie_element_2049"></use></mask><g id="__lottie_element_2055"><g style="display: block;" transform="matrix(0,-0.9369999766349792,0.9369999766349792,0,225,225)" opacity="1"><g opacity="1" transform="matrix(1,0,0,1,0,0)"><path fill="rgb(255,0,0)" fill-opacity="1" d=" M0,-143.82150268554688 C79.37508392333984,-143.82150268554688 143.82150268554688,-79.37508392333984 143.82150268554688,0 C143.82150268554688,79.37508392333984 79.37508392333984,143.82150268554688 0,143.82150268554688 C0,143.82200622558594 0,143.82200622558594 0,143.82200622558594"></path></g></g></g><linearGradient id="__lottie_element_2061" spreadMethod="pad" gradientUnits="userSpaceOnUse" x1="-37.779998779296875" y1="19.184999465942383" x2="36.24300003051758" y2="-15.831000328063965"><stop offset="9%" stop-color="rgb(255,230,230)"></stop><stop offset="54%" stop-color="rgb(243,131,131)"></stop><stop offset="100%" stop-color="rgb(232,32,32)"></stop></linearGradient><mask id="__lottie_element_2055_1" mask-type="alpha"><use xlink:href="#__lottie_element_2055"></use></mask><linearGradient id="__lottie_element_2065" spreadMethod="pad" gradientUnits="userSpaceOnUse" x1="-31.305999755859375" y1="-29.584999084472656" x2="19.9060001373291" y2="36.72700119018555"><stop offset="41%" stop-color="rgb(188,236,203)"></stop><stop offset="50%" stop-color="rgb(137,222,164)"></stop><stop offset="58%" stop-color="rgb(87,207,125)"></stop></linearGradient><g id="__lottie_element_2066"><g transform="matrix(0.9369999766349792,0,0,0.9369999766349792,225,142.54400634765625)" opacity="1" style="display: block;"><g opacity="1" transform="matrix(1,0,0,1,0,0)"><path fill="rgb(242,242,242)" fill-opacity="1" d=" M200,-112 C200,-112 200,112 200,112 C200,112 -200,112 -200,112 C-200,112 -200,-112 -200,-112 C-200,-112 200,-112 200,-112z"></path></g></g></g><mask id="__lottie_element_2066_1" mask-type="alpha"><use xlink:href="#__lottie_element_2066"></use></mask><linearGradient id="__lottie_element_2081" spreadMethod="pad" gradientUnits="userSpaceOnUse" x1="-126.75599670410156" y1="41.816001892089844" x2="105.89299774169922" y2="42.64500045776367"><stop offset="0%" stop-color="rgb(251,173,65)"></stop><stop offset="16%" stop-color="rgb(249,151,48)"></stop><stop offset="31%" stop-color="rgb(246,130,31)"></stop><stop offset="51%" stop-color="rgb(250,116,41)"></stop><stop offset="71%" stop-color="rgb(255,102,51)"></stop><stop offset="86%" stop-color="rgb(231,74,68)"></stop><stop offset="100%" stop-color="rgb(206,47,85)"></stop></linearGradient><linearGradient id="__lottie_element_2085" spreadMethod="pad" gradientUnits="userSpaceOnUse" x1="-109.74600219726562" y1="-47.847999572753906" x2="100" y2="0"><stop offset="0%" stop-color="rgb(255,233,203)"></stop><stop offset="50%" stop-color="rgb(255,244,229)"></stop><stop offset="100%" stop-color="rgb(255,255,255)"></stop></linearGradient><g id="__lottie_element_2089"><g transform="matrix(0.9369999766349792,0,0,0.9369999766349792,225,161.75250244140625)" opacity="1" style="display: block;"><g opacity="1" transform="matrix(1,0,0,1,0,0)"><path fill="rgb(242,242,242)" fill-opacity="1" d=" M200,-132.5 C200,-132.5 200,132.5 200,132.5 C200,132.5 -200,132.5 -200,132.5 C-200,132.5 -200,-132.5 -200,-132.5 C-200,-132.5 200,-132.5 200,-132.5z"></path></g></g></g><linearGradient id="__lottie_element_2095" spreadMethod="pad" gradientUnits="userSpaceOnUse" x1="-135.45899963378906" y1="-108.74400329589844" x2="89.2300033569336" y2="116.27899932861328"><stop offset="0%" stop-color="rgb(251,173,65)"></stop><stop offset="31%" stop-color="rgb(249,151,48)"></stop><stop offset="53%" stop-color="rgb(246,130,31)"></stop><stop offset="76%" stop-color="rgb(250,116,41)"></stop><stop offset="100%" stop-color="rgb(255,102,51)"></stop></linearGradient><mask id="__lottie_element_2089_1" mask-type="alpha"><use xlink:href="#__lottie_element_2089"></use></mask><linearGradient id="__lottie_element_2095" spreadMethod="pad" gradientUnits="userSpaceOnUse" x1="-135.45899963378906" y1="-108.74400329589844" x2="89.2300033569336" y2="116.27899932861328"><stop offset="0%" stop-color="rgb(251,173,65)"></stop><stop offset="31%" stop-color="rgb(249,151,48)"></stop><stop offset="53%" stop-color="rgb(246,130,31)"></stop><stop offset="76%" stop-color="rgb(250,116,41)"></stop><stop offset="100%" stop-color="rgb(255,102,51)"></stop></linearGradient><linearGradient id="__lottie_element_2085" spreadMethod="pad" gradientUnits="userSpaceOnUse" x1="-109.74600219726562" y1="-47.847999572753906" x2="100" y2="0"><stop offset="0%" stop-color="rgb(255,233,203)"></stop><stop offset="50%" stop-color="rgb(255,244,229)"></stop><stop offset="100%" stop-color="rgb(255,255,255)"></stop></linearGradient><linearGradient id="__lottie_element_2081" spreadMethod="pad" gradientUnits="userSpaceOnUse" x1="-126.75599670410156" y1="41.816001892089844" x2="105.89299774169922" y2="42.64500045776367"><stop offset="0%" stop-color="rgb(251,173,65)"></stop><stop offset="16%" stop-color="rgb(249,151,48)"></stop><stop offset="31%" stop-color="rgb(246,130,31)"></stop><stop offset="51%" stop-color="rgb(250,116,41)"></stop><stop offset="71%" stop-color="rgb(255,102,51)"></stop><stop offset="86%" stop-color="rgb(231,74,68)"></stop><stop offset="100%" stop-color="rgb(206,47,85)"></stop></linearGradient><linearGradient id="__lottie_element_2065" spreadMethod="pad" gradientUnits="userSpaceOnUse" x1="-31.305999755859375" y1="-29.584999084472656" x2="19.9060001373291" y2="36.72700119018555"><stop offset="41%" stop-color="rgb(188,236,203)"></stop><stop offset="50%" stop-color="rgb(137,222,164)"></stop><stop offset="58%" stop-color="rgb(87,207,125)"></stop></linearGradient><linearGradient id="__lottie_element_2061" spreadMethod="pad" gradientUnits="userSpaceOnUse" x1="-37.779998779296875" y1="19.184999465942383" x2="36.24300003051758" y2="-15.831000328063965"><stop offset="9%" stop-color="rgb(255,230,230)"></stop><stop offset="54%" stop-color="rgb(243,131,131)"></stop><stop offset="100%" stop-color="rgb(232,32,32)"></stop></linearGradient><linearGradient id="__lottie_element_2039" spreadMethod="pad" gradientUnits="userSpaceOnUse" x1="26.1560001373291" y1="-6.810999870300293" x2="-22.41200065612793" y2="7.584000110626221"><stop offset="0%" stop-color="rgb(255,255,255)"></stop><stop offset="26%" stop-color="rgb(239,239,239)"></stop><stop offset="52%" stop-color="rgb(223,223,223)"></stop><stop offset="76%" stop-color="rgb(172,172,172)"></stop><stop offset="100%" stop-color="rgb(121,121,121)"></stop></linearGradient><linearGradient id="__lottie_element_2045" spreadMethod="pad" gradientUnits="userSpaceOnUse" x1="-33.5" y1="14.777999877929688" x2="41.22100067138672" y2="-25.381000518798828"><stop offset="0%" stop-color="rgb(251,173,65)"></stop><stop offset="31%" stop-color="rgb(249,151,48)"></stop><stop offset="53%" stop-color="rgb(246,130,31)"></stop><stop offset="76%" stop-color="rgb(250,116,41)"></stop><stop offset="100%" stop-color="rgb(255,102,51)"></stop></linearGradient><linearGradient id="__lottie_element_2095" spreadMethod="pad" gradientUnits="userSpaceOnUse" x1="-135.45899963378906" y1="-108.74400329589844" x2="89.2300033569336" y2="116.27899932861328"><stop offset="0%" stop-color="rgb(251,173,65)"></stop><stop offset="31%" stop-color="rgb(249,151,48)"></stop><stop offset="53%" stop-color="rgb(246,130,31)"></stop><stop offset="76%" stop-color="rgb(250,116,41)"></stop><stop offset="100%" stop-color="rgb(255,102,51)"></stop></linearGradient><linearGradient id="__lottie_element_2085" spreadMethod="pad" gradientUnits="userSpaceOnUse" x1="-109.74600219726562" y1="-47.847999572753906" x2="100" y2="0"><stop offset="0%" stop-color="rgb(255,233,203)"></stop><stop offset="50%" stop-color="rgb(255,244,229)"></stop><stop offset="100%" stop-color="rgb(255,255,255)"></stop></linearGradient><linearGradient id="__lottie_element_2081" spreadMethod="pad" gradientUnits="userSpaceOnUse" x1="-126.75599670410156" y1="41.816001892089844" x2="105.89299774169922" y2="42.64500045776367"><stop offset="0%" stop-color="rgb(251,173,65)"></stop><stop offset="16%" stop-color="rgb(249,151,48)"></stop><stop offset="31%" stop-color="rgb(246,130,31)"></stop><stop offset="51%" stop-color="rgb(250,116,41)"></stop><stop offset="71%" stop-color="rgb(255,102,51)"></stop><stop offset="86%" stop-color="rgb(231,74,68)"></stop><stop offset="100%" stop-color="rgb(206,47,85)"></stop></linearGradient><linearGradient id="__lottie_element_2065" spreadMethod="pad" gradientUnits="userSpaceOnUse" x1="-31.305999755859375" y1="-29.584999084472656" x2="19.9060001373291" y2="36.72700119018555"><stop offset="41%" stop-color="rgb(188,236,203)"></stop><stop offset="50%" stop-color="rgb(137,222,164)"></stop><stop offset="58%" stop-color="rgb(87,207,125)"></stop></linearGradient><linearGradient id="__lottie_element_2061" spreadMethod="pad" gradientUnits="userSpaceOnUse" x1="-37.779998779296875" y1="19.184999465942383" x2="36.24300003051758" y2="-15.831000328063965"><stop offset="9%" stop-color="rgb(255,230,230)"></stop><stop offset="54%" stop-color="rgb(243,131,131)"></stop><stop offset="100%" stop-color="rgb(232,32,32)"></stop></linearGradient><linearGradient id="__lottie_element_2039" spreadMethod="pad" gradientUnits="userSpaceOnUse" x1="26.1560001373291" y1="-6.810999870300293" x2="-22.41200065612793" y2="7.584000110626221"><stop offset="0%" stop-color="rgb(255,255,255)"></stop><stop offset="26%" stop-color="rgb(239,239,239)"></stop><stop offset="52%" stop-color="rgb(223,223,223)"></stop><stop offset="76%" stop-color="rgb(172,172,172)"></stop><stop offset="100%" stop-color="rgb(121,121,121)"></stop></linearGradient><linearGradient id="__lottie_element_2045" spreadMethod="pad" gradientUnits="userSpaceOnUse" x1="-33.5" y1="14.777999877929688" x2="41.22100067138672" y2="-25.381000518798828"><stop offset="0%" stop-color="rgb(251,173,65)"></stop><stop offset="31%" stop-color="rgb(249,151,48)"></stop><stop offset="53%" stop-color="rgb(246,130,31)"></stop><stop offset="76%" stop-color="rgb(250,116,41)"></stop><stop offset="100%" stop-color="rgb(255,102,51)"></stop></linearGradient><g id="__lottie_element_1988"><g transform="matrix(0.9369999766349792,0,0,0.9369999766349792,225,161.75250244140625)" opacity="1" style="display: block;"><g opacity="1" transform="matrix(1,0,0,1,0,0)"><path fill="rgb(242,242,242)" fill-opacity="1" d=" M200,-132.5 C200,-132.5 200,132.5 200,132.5 C200,132.5 -200,132.5 -200,132.5 C-200,132.5 -200,-132.5 -200,-132.5 C-200,-132.5 200,-132.5 200,-132.5z"></path></g></g></g><g id="__lottie_element_2049"><g style="display: block;" transform="matrix(0.9369999766349792,0,0,0.9369999766349792,225,225)" opacity="1"><g opacity="1" transform="matrix(1,0,0,1,0,0)"><path fill="rgb(255,0,0)" fill-opacity="1" d=" M0,-98.6500015258789 C54.4449348449707,-98.6500015258789 98.6500015258789,-54.4449348449707 98.6500015258789,0 C98.6500015258789,54.4449348449707 54.4449348449707,98.6500015258789 0,98.6500015258789 C-54.4449348449707,98.6500015258789 -98.6500015258789,54.4449348449707 -98.6500015258789,0 C-98.6500015258789,-54.4449348449707 -54.4449348449707,-98.6500015258789 0,-98.6500015258789z"></path></g></g></g><g id="__lottie_element_2055"><g style="display: block;" transform="matrix(0,-0.9369999766349792,0.9369999766349792,0,225,225)" opacity="1"><g opacity="1" transform="matrix(1,0,0,1,0,0)"><path fill="rgb(255,0,0)" fill-opacity="1" d=" M0,-143.82150268554688 C79.37508392333984,-143.82150268554688 143.82150268554688,-79.37508392333984 143.82150268554688,0 C143.82150268554688,79.37508392333984 79.37508392333984,143.82150268554688 0,143.82150268554688 C0,143.82200622558594 0,143.82200622558594 0,143.82200622558594"></path></g></g></g><g id="__lottie_element_2066"><g transform="matrix(0.9369999766349792,0,0,0.9369999766349792,225,142.54400634765625)" opacity="1" style="display: block;"><g opacity="1" transform="matrix(1,0,0,1,0,0)"><path fill="rgb(242,242,242)" fill-opacity="1" d=" M200,-112 C200,-112 200,112 200,112 C200,112 -200,112 -200,112 C-200,112 -200,-112 -200,-112 C-200,-112 200,-112 200,-112z"></path></g></g></g><g id="__lottie_element_2089"><g transform="matrix(0.9369999766349792,0,0,0.9369999766349792,225,161.75250244140625)" opacity="1" style="display: block;"><g opacity="1" transform="matrix(1,0,0,1,0,0)"><path fill="rgb(242,242,242)" fill-opacity="1" d=" M200,-132.5 C200,-132.5 200,132.5 200,132.5 C200,132.5 -200,132.5 -200,132.5 C-200,132.5 -200,-132.5 -200,-132.5 C-200,-132.5 200,-132.5 200,-132.5z"></path></g></g></g></defs><g clip-path="url(#__lottie_element_1986)"><g transform="matrix(0.9369999766349792,0,0,0.9369999766349792,-9.249994277954102,-9.249994277954102)" opacity="1" style="display: block;"><rect width="500" height="500" fill="#FFFFFF"></rect></g><g mask="url(#__lottie_element_2089_1)" style="display: block;"><g transform="matrix(0.9369999766349792,0,0,0.9369999766349792,225,225)" opacity="1"><g opacity="1" transform="matrix(1,0,0,1,0,0)"><path fill="url(&quot;#__lottie_element_2095&quot;)" fill-opacity="1" d=" M0,-150 C82.78500366210938,-150 150,-82.78500366210938 150,0 C150,82.78500366210938 82.78500366210938,150 0,150 C-82.78500366210938,150 -150,82.78500366210938 -150,0 C-150,-82.78500366210938 -82.78500366210938,-150 0,-150z"></path></g></g></g><g transform="matrix(0.9369999766349792,0,0,0.9369999766349792,225,187.52000427246094)" opacity="1" style="display: none;"><g opacity="1" transform="matrix(1,0,0,1,0,0)"><path stroke-linecap="butt" stroke-linejoin="miter" fill-opacity="0" stroke-miterlimit="4" stroke="#FF6633" stroke-opacity="1" stroke-width="2px" d="M0 0"></path></g></g><g transform="matrix(0.9369999766349792,0,0,0.9369999766349792,225,225)" opacity="1" style="display: block;"><g opacity="1" transform="matrix(1,0,0,1,0,0)"><path fill="url(&quot;#__lottie_element_2085&quot;)" fill-opacity="1" d=" M0,-116 C64.06500244140625,-116 116,-64.06500244140625 116,0 C116,14.336999893188477 113.45500183105469,28.315000534057617 108.6989974975586,40.99100112915039 C67.5,41 -61.625,41 -108.80599975585938,41.000999450683594 C-113.44499969482422,28.461999893188477 -116,14.152000427246094 -116,0 C-116,-64.06500244140625 -64.06500244140625,-116 0,-116z"></path></g></g><g transform="matrix(0.9369999766349792,0,0,0.9369999766349792,225,225)" opacity="1" style="display: block;"><g opacity="1" transform="matrix(1,0,0,1,0,0)"><path stroke="url(&quot;#__lottie_element_2081&quot;)" stroke-linecap="round" stroke-linejoin="round" fill-opacity="0" stroke-opacity="1" stroke-width="4px" d=" M0,-116 C64.06500244140625,-116 116,-64.06500244140625 116,0 C116,14.336999893188477 113.45500183105469,28.315000534057617 108.6989974975586,40.99100112915039 C67.5,41 -61.625,41 -108.80599975585938,41.000999450683594 C-113.44499969482422,28.461999893188477 -116,14.152000427246094 -116,0 C-116,-64.06500244140625 -64.06500244140625,-116 0,-116z"></path></g></g><g mask="url(#__lottie_element_2066_1)" style="display: block;"><g transform="matrix(0.9369999766349792,0,0,0.9369999766349792,225,225)" opacity="1"><g opacity="1" transform="matrix(1,0,0,1,0,0)"><path fill="#FFFFFF" fill-opacity="1" d=" M0,-98.6500015258789 C54.4449348449707,-98.6500015258789 98.6500015258789,-54.4449348449707 98.6500015258789,0 C98.6500015258789,54.4449348449707 54.4449348449707,98.6500015258789 0,98.6500015258789 C-54.4449348449707,98.6500015258789 -98.6500015258789,54.4449348449707 -98.6500015258789,0 C-98.6500015258789,-54.4449348449707 -54.4449348449707,-98.6500015258789 0,-98.6500015258789z"></path></g></g></g><g transform="matrix(0.9369999766349792,0,0,0.9369999766349792,225,187.52000427246094)" opacity="1" style="display: none;"><g opacity="1" transform="matrix(1,0,0,1,0,0)"><path stroke-linecap="butt" stroke-linejoin="miter" fill-opacity="0" stroke-miterlimit="4" stroke="#FBAD41" stroke-opacity="1" stroke-width="2px" d="M0 0"></path></g></g><g transform="matrix(0.9369999766349792,0,0,0.9369999766349792,225,225)" opacity="0.07472727272365176" style="display: none;"><g opacity="1" transform="matrix(1,0,0,1,0,0)"><path stroke-linecap="round" stroke-linejoin="round" fill-opacity="0" stroke="#FBAD41" stroke-opacity="1" stroke-width="4px" d=" M-0.0010000000474974513,24.000999450683594 C-35.689998626708984,24.000999450683594 -71.56300354003906,24.000999450683594 -95.74500274658203,24.00200080871582 C-97.65599822998047,16.33799934387207 -98.6500015258789,8.255999565124512 -98.6500015258789,0 C-98.6500015258789,-54.483001708984375 -54.483001708984375,-98.6500015258789 0,-98.6500015258789 C0,-98.6500015258789 0,-98.6500015258789 0,-98.6500015258789 C54.483001708984375,-98.6500015258789 98.6500015258789,-54.483001708984375 98.6500015258789,0 C98.6500015258789,8.244999885559082 97.64900207519531,16.347999572753906 95.74299621582031,24.003000259399414 C72.31500244140625,24.000999450683594 36.25199890136719,24.000999450683594 -0.0010000000474974513,24.000999450683594"></path></g></g><g mask="url(#__lottie_element_2055_1)" style="display: block;"><g transform="matrix(0.9369999766349792,0,0,0.9369999766349792,236.4979248046875,154.82057189941406)" opacity="1"><g opacity="1" transform="matrix(1,0,0,1,32.40999984741211,38.07400131225586)"><path fill="url(&quot;#__lottie_element_2065&quot;)" fill-opacity="1" d=" M-32.31999969482422,-15.444000244140625 C-22.922000885009766,-13.07800006866455 -14.048999786376953,-8.142000198364258 -6.823999881744385,-0.656000018119812 C3.4509999752044678,9.991999626159668 8.451000213623047,23.788000106811523 8.234999656677246,37.5 C8.234999656677246,37.5 31.784000396728516,37.5 31.784000396728516,37.5 C32,17.900999069213867 24.805999755859375,-1.7890000343322754 10.119999885559082,-17.006999969482422 C-0.14300000667572021,-27.64299964904785 -12.720000267028809,-34.69900131225586 -26.051000595092773,-38.14899826049805 C-26.051000595092773,-38.14899826049805 -32.31999969482422,-15.444000244140625 -32.31999969482422,-15.444000244140625z"></path></g></g></g><g mask="url(#__lottie_element_2055_1)" style="display: block;"><g transform="matrix(0.9369999766349792,0,0,0.9369999766349792,171.7090606689453,140.15277099609375)" opacity="1"><g opacity="1" transform="matrix(1,0,0,1,32.40999984741211,38.07400131225586)"><path fill="url(&quot;#__lottie_element_2061&quot;)" fill-opacity="1" d=" M-24.46299934387207,26.63800048828125 C-19.86199951171875,18.108999252319336 -12.89900016784668,10.718999862670898 -3.868000030517578,5.553999900817871 C8.97700023651123,-1.7920000553131104 23.57900047302246,-3.250999927520752 36.81800079345703,0.32499998807907104 C36.81800079345703,0.32499998807907104 42.599998474121094,-22.503000259399414 42.599998474121094,-22.503000259399414 C23.65399932861328,-27.524999618530273 2.8010001182556152,-25.385000228881836 -15.557999610900879,-14.88599967956543 C-28.38800048828125,-7.548999786376953 -38.316001892089844,2.9100000858306885 -44.933998107910156,14.986000061035156 C-44.933998107910156,14.986000061035156 -50.72999954223633,27.915000915527344 -51.31999969482422,33.00899887084961 C-44.78499984741211,34.72800064086914 -35.65999984741211,37.85300064086914 -29.81599998474121,39.375999450683594 C-28.53499984741211,34.10300064086914 -24.46299934387207,26.63800048828125 -24.46299934387207,26.63800048828125z"></path></g></g></g><g mask="url(#__lottie_element_2049_1)" style="display: block;"><g clip-path="url(#__lottie_element_2053)" transform="matrix(0.9369999766349792,0,0,0.9369999766349792,151.40428161621094,152.92970275878906)" opacity="1"><g opacity="1" transform="matrix(1,0,0,1,11.36299991607666,77.44200134277344)"><path fill="#B0291C" fill-opacity="1" d=" M11.331000328063965,0.0010000000474974513 C11.331000328063965,-0.4180000126361847 11.352999687194824,-0.8320000171661377 11.36299991607666,-1.25 C11.36299991607666,-1.25 -11.36299991607666,-1.25 -11.36299991607666,-1.25 C-11.36299991607666,-1.25 -11.36299991607666,1.25 -11.36299991607666,1.25 C-11.36299991607666,1.25 11.36299991607666,1.25 11.36299991607666,1.25 C11.352999687194824,0.8339999914169312 11.331000328063965,0.41999998688697815 11.331000328063965,0.0010000000474974513z"></path></g><g opacity="1" transform="matrix(1,0,0,1,13.607000350952148,60.3380012512207)"><path fill="#B0291C" fill-opacity="1" d=" M11.291000366210938,1.7309999465942383 C11.291000366210938,1.7309999465942383 -10.644000053405762,-4.145999908447266 -10.644000053405762,-4.145999908447266 C-10.644000053405762,-4.145999908447266 -11.291000366210938,-1.7309999465942383 -11.291000366210938,-1.7309999465942383 C-11.291000366210938,-1.7309999465942383 10.644000053405762,4.145999908447266 10.644000053405762,4.145999908447266 C10.840999603271484,3.3329999446868896 11.057999610900879,2.5290000438690186 11.291000366210938,1.7309999465942383z"></path></g><g opacity="1" transform="matrix(1,0,0,1,20.20599937438965,44.395999908447266)"><path fill="#B0291C" fill-opacity="1" d=" M10.454999923706055,4.5929999351501465 C10.454999923706055,4.5929999351501465 -9.204999923706055,-6.757999897003174 -9.204999923706055,-6.757999897003174 C-9.204999923706055,-6.757999897003174 -10.454999923706055,-4.5929999351501465 -10.454999923706055,-4.5929999351501465 C-10.454999923706055,-4.5929999351501465 9.206000328063965,6.757999897003174 9.206000328063965,6.757999897003174 C9.607000350952148,6.0269999504089355 10.022000312805176,5.303999900817871 10.454999923706055,4.5929999351501465z"></path></g><g opacity="1" transform="matrix(1,0,0,1,30.715999603271484,30.715999603271484)"><path fill="#B0291C" fill-opacity="1" d=" M8.918000221252441,7.151000022888184 C8.918000221252441,7.151000022888184 -7.151000022888184,-8.918000221252441 -7.151000022888184,-8.918000221252441 C-7.151000022888184,-8.918000221252441 -8.918000221252441,-7.150000095367432 -8.918000221252441,-7.150000095367432 C-8.918000221252441,-7.150000095367432 7.150000095367432,8.918999671936035 7.150000095367432,8.918999671936035 C7.72599983215332,8.315999984741211 8.3149995803833,7.7270002365112305 8.918000221252441,7.151000022888184z"></path></g><g opacity="1" transform="matrix(1,0,0,1,44.39699935913086,20.20599937438965)"><path fill="#B0291C" fill-opacity="1" d=" M6.757999897003174,9.206000328063965 C6.757999897003174,9.206000328063965 -4.593999862670898,-10.454999923706055 -4.593999862670898,-10.454999923706055 C-4.593999862670898,-10.454999923706055 -6.758999824523926,-9.204999923706055 -6.758999824523926,-9.204999923706055 C-6.758999824523926,-9.204999923706055 4.5920000076293945,10.454999923706055 4.5920000076293945,10.454999923706055 C5.302999973297119,10.022000312805176 6.026000022888184,9.607000350952148 6.757999897003174,9.206000328063965z"></path></g><g opacity="1" transform="matrix(1,0,0,1,60.33700180053711,13.607000350952148)"><path fill="#B0291C" fill-opacity="1" d=" M4.145999908447266,10.644000053405762 C4.145999908447266,10.644000053405762 -1.7319999933242798,-11.291000366210938 -1.7319999933242798,-11.291000366210938 C-1.7319999933242798,-11.291000366210938 -4.146999835968018,-10.644000053405762 -4.146999835968018,-10.644000053405762 C-4.146999835968018,-10.644000053405762 1.7309999465942383,11.291000366210938 1.7309999465942383,11.291000366210938 C2.5290000438690186,11.057999610900879 3.3329999446868896,10.840999603271484 4.145999908447266,10.644000053405762z"></path></g><g opacity="1" transform="matrix(1,0,0,1,77.44300079345703,11.36299991607666)"><path fill="#B0291C" fill-opacity="1" d=" M0,11.331000328063965 C0.4189999997615814,11.331000328063965 0.8330000042915344,11.352999687194824 1.25,11.36299991607666 C1.25,11.36299991607666 1.25,-11.36299991607666 1.25,-11.36299991607666 C1.25,-11.36299991607666 -1.25,-11.36299991607666 -1.25,-11.36299991607666 C-1.25,-11.36299991607666 -1.25,11.36299991607666 -1.25,11.36299991607666 C-0.8330000042915344,11.352999687194824 -0.4189999997615814,11.331000328063965 0,11.331000328063965z"></path></g><g opacity="1" transform="matrix(1,0,0,1,94.5469970703125,13.605999946594238)"><path fill="#12523D" fill-opacity="1" d=" M-1.7319999933242798,11.291000366210938 C-1.7319999933242798,11.291000366210938 4.145999908447266,-10.644000053405762 4.145999908447266,-10.644000053405762 C4.145999908447266,-10.644000053405762 1.7319999933242798,-11.291999816894531 1.7319999933242798,-11.291999816894531 C1.7319999933242798,-11.291999816894531 -4.145999908447266,10.644000053405762 -4.145999908447266,10.644000053405762 C-3.3340001106262207,10.840999603271484 -2.5299999713897705,11.057999610900879 -1.7319999933242798,11.291000366210938z"></path></g><g opacity="1" transform="matrix(1,0,0,1,134.67999267578125,44.39699935913086)"><path fill="#12523D" fill-opacity="1" d=" M-9.206000328063965,6.758999824523926 C-9.206000328063965,6.758999824523926 10.456000328063965,-4.5929999351501465 10.456000328063965,-4.5929999351501465 C10.456000328063965,-4.5929999351501465 9.206000328063965,-6.757999897003174 9.206000328063965,-6.757999897003174 C9.206000328063965,-6.757999897003174 -10.454999923706055,4.5929999351501465 -10.454999923706055,4.5929999351501465 C-10.022000312805176,5.303999900817871 -9.607000350952148,6.0269999504089355 -9.206000328063965,6.758999824523926z"></path></g><g opacity="1" transform="matrix(1,0,0,1,141.2790069580078,60.3380012512207)"><path fill="#12523D" fill-opacity="1" d=" M-10.644000053405762,4.145999908447266 C-10.644000053405762,4.145999908447266 11.291000366210938,-1.7309999465942383 11.291000366210938,-1.7309999465942383 C11.291000366210938,-1.7309999465942383 10.644000053405762,-4.145999908447266 10.644000053405762,-4.145999908447266 C10.644000053405762,-4.145999908447266 -11.291000366210938,1.7309999465942383 -11.291000366210938,1.7309999465942383 C-11.057999610900879,2.5290000438690186 -10.840999603271484,3.3329999446868896 -10.644000053405762,4.145999908447266z"></path></g><g opacity="1" transform="matrix(1,0,0,1,110.48899841308594,20.20599937438965)"><path fill="#12523D" fill-opacity="1" d=" M-4.5929999351501465,10.456000328063965 C-4.5929999351501465,10.456000328063965 6.758999824523926,-9.204999923706055 6.758999824523926,-9.204999923706055 C6.758999824523926,-9.204999923706055 4.5920000076293945,-10.454999923706055 4.5920000076293945,-10.454999923706055 C4.5920000076293945,-10.454999923706055 -6.758999824523926,9.206000328063965 -6.758999824523926,9.206000328063965 C-6.0269999504089355,9.607999801635742 -5.303999900817871,10.02299976348877 -4.5929999351501465,10.456000328063965z"></path></g><g opacity="1" transform="matrix(1,0,0,1,124.16899871826172,30.715999603271484)"><path fill="#12523D" fill-opacity="1" d=" M-7.151000022888184,8.918000221252441 C-7.151000022888184,8.918000221252441 8.918000221252441,-7.151000022888184 8.918000221252441,-7.151000022888184 C8.918000221252441,-7.151000022888184 7.150000095367432,-8.918000221252441 7.150000095367432,-8.918000221252441 C7.150000095367432,-8.918000221252441 -8.918999671936035,7.150000095367432 -8.918999671936035,7.150000095367432 C-8.315999984741211,7.72599983215332 -7.7270002365112305,8.3149995803833 -7.151000022888184,8.918000221252441z"></path></g><g opacity="1" transform="matrix(1,0,0,1,143.52200317382812,77.44200134277344)"><path fill="#12523D" fill-opacity="1" d=" M-11.36299991607666,-1.25 C-11.354000091552734,-0.8330000042915344 -11.331000328063965,-0.4189999997615814 -11.331000328063965,0.0010000000474974513 C-11.331000328063965,0.41999998688697815 -11.354000091552734,0.8330000042915344 -11.36299991607666,1.25 C-11.36299991607666,1.25 11.362000465393066,1.25 11.362000465393066,1.25 C11.362000465393066,1.25 11.362000465393066,-1.25 11.362000465393066,-1.25 C11.362000465393066,-1.25 -11.36299991607666,-1.25 -11.36299991607666,-1.25z"></path></g><g opacity="1" transform="matrix(1,0,0,1,94.5479965209961,141.2779998779297)"><path fill="#747474" fill-opacity="1" d=" M-4.145999908447266,-10.644000053405762 C-4.145999908447266,-10.644000053405762 1.7319999933242798,11.289999961853027 1.7319999933242798,11.289999961853027 C1.7319999933242798,11.289999961853027 4.145999908447266,10.644000053405762 4.145999908447266,10.644000053405762 C4.145999908447266,10.644000053405762 -1.7319999933242798,-11.291000366210938 -1.7319999933242798,-11.291000366210938 C-2.5299999713897705,-11.057999610900879 -3.3340001106262207,-10.840999603271484 -4.145999908447266,-10.644000053405762z"></path></g><g opacity="1" transform="matrix(1,0,0,1,110.48899841308594,134.67999267578125)"><path fill="#747474" fill-opacity="1" d=" M-6.758999824523926,-9.206000328063965 C-6.758999824523926,-9.206000328063965 4.5929999351501465,10.456000328063965 4.5929999351501465,10.456000328063965 C4.5929999351501465,10.456000328063965 6.758999824523926,9.206000328063965 6.758999824523926,9.206000328063965 C6.758999824523926,9.206000328063965 -4.5929999351501465,-10.456000328063965 -4.5929999351501465,-10.456000328063965 C-5.303999900817871,-10.022000312805176 -6.0269999504089355,-9.607000350952148 -6.758999824523926,-9.206000328063965z"></path></g><g opacity="1" transform="matrix(1,0,0,1,134.67999267578125,110.48799896240234)"><path fill="#747474" fill-opacity="1" d=" M-10.454999923706055,-4.5929999351501465 C-10.454999923706055,-4.5929999351501465 9.206000328063965,6.757999897003174 9.206000328063965,6.757999897003174 C9.206000328063965,6.757999897003174 10.456000328063965,4.5920000076293945 10.456000328063965,4.5920000076293945 C10.456000328063965,4.5920000076293945 -9.204999923706055,-6.758999824523926 -9.204999923706055,-6.758999824523926 C-9.607000350952148,-6.0269999504089355 -10.022000312805176,-5.303999900817871 -10.454999923706055,-4.5929999351501465z"></path></g><g opacity="1" transform="matrix(1,0,0,1,13.605999946594238,94.5479965209961)"><path fill="#747474" fill-opacity="1" d=" M10.644000053405762,-4.145999908447266 C10.644000053405762,-4.145999908447266 -11.291000366210938,1.7319999933242798 -11.291000366210938,1.7319999933242798 C-11.291000366210938,1.7319999933242798 -10.644000053405762,4.145999908447266 -10.644000053405762,4.145999908447266 C-10.644000053405762,4.145999908447266 11.291000366210938,-1.7319999933242798 11.291000366210938,-1.7319999933242798 C11.057999610900879,-2.5290000438690186 10.840999603271484,-3.3340001106262207 10.644000053405762,-4.145999908447266z"></path></g><g opacity="1" transform="matrix(1,0,0,1,141.2790069580078,94.5469970703125)"><path fill="#747474" fill-opacity="1" d=" M-11.291000366210938,-1.7319999933242798 C-11.291000366210938,-1.7319999933242798 10.644000053405762,4.144999980926514 10.644000053405762,4.144999980926514 C10.644000053405762,4.144999980926514 11.291000366210938,1.7309999465942383 11.291000366210938,1.7309999465942383 C11.291000366210938,1.7309999465942383 -10.644000053405762,-4.145999908447266 -10.644000053405762,-4.145999908447266 C-10.840999603271484,-3.3340001106262207 -11.057999610900879,-2.5299999713897705 -11.291000366210938,-1.7319999933242798z"></path></g><g opacity="1" transform="matrix(1,0,0,1,124.16899871826172,124.16899871826172)"><path fill="#747474" fill-opacity="1" d=" M-8.918000221252441,-7.150000095367432 C-8.918000221252441,-7.150000095367432 7.150000095367432,8.918000221252441 7.150000095367432,8.918000221252441 C7.150000095367432,8.918000221252441 8.918000221252441,7.151000022888184 8.918000221252441,7.151000022888184 C8.918000221252441,7.151000022888184 -7.150000095367432,-8.918000221252441 -7.150000095367432,-8.918000221252441 C-7.72599983215332,-8.3149995803833 -8.3149995803833,-7.72599983215332 -8.918000221252441,-7.150000095367432z"></path></g><g opacity="1" transform="matrix(1,0,0,1,30.716999053955078,124.16899871826172)"><path fill="#747474" fill-opacity="1" d=" M7.150000095367432,-8.916999816894531 C7.150000095367432,-8.916999816894531 -8.918000221252441,7.150000095367432 -8.918000221252441,7.150000095367432 C-8.918000221252441,7.150000095367432 -7.150000095367432,8.916999816894531 -7.150000095367432,8.916999816894531 C-7.150000095367432,8.916999816894531 8.918000221252441,-7.14900016784668 8.918000221252441,-7.14900016784668 C8.3149995803833,-7.724999904632568 7.72599983215332,-8.314000129699707 7.150000095367432,-8.916999816894531z"></path></g><g opacity="1" transform="matrix(1,0,0,1,77.44300079345703,143.5229949951172)"><path fill="#747474" fill-opacity="1" d=" M0,-11.331000328063965 C-0.4189999997615814,-11.331000328063965 -0.8330000042915344,-11.352999687194824 -1.25,-11.36299991607666 C-1.25,-11.36299991607666 -1.25,11.36299991607666 -1.25,11.36299991607666 C-1.25,11.36299991607666 1.25,11.36299991607666 1.25,11.36299991607666 C1.25,11.36299991607666 1.25,-11.36299991607666 1.25,-11.36299991607666 C0.8330000042915344,-11.352999687194824 0.4189999997615814,-11.331000328063965 0,-11.331000328063965z"></path></g><g opacity="1" transform="matrix(1,0,0,1,20.20599937438965,110.48799896240234)"><path fill="#747474" fill-opacity="1" d=" M9.204999923706055,-6.758999824523926 C9.204999923706055,-6.758999824523926 -10.454999923706055,4.5920000076293945 -10.454999923706055,4.5920000076293945 C-10.454999923706055,4.5920000076293945 -9.204999923706055,6.757999897003174 -9.204999923706055,6.757999897003174 C-9.204999923706055,6.757999897003174 10.454999923706055,-4.5929999351501465 10.454999923706055,-4.5929999351501465 C10.020999908447266,-5.303999900817871 9.605999946594238,-6.0269999504089355 9.204999923706055,-6.758999824523926z"></path></g><g opacity="1" transform="matrix(1,0,0,1,44.39699935913086,134.67999267578125)"><path fill="#747474" fill-opacity="1" d=" M4.5929999351501465,-10.454999923706055 C4.5929999351501465,-10.454999923706055 -6.757999897003174,9.206000328063965 -6.757999897003174,9.206000328063965 C-6.757999897003174,9.206000328063965 -4.5929999351501465,10.456000328063965 -4.5929999351501465,10.456000328063965 C-4.5929999351501465,10.456000328063965 6.758999824523926,-9.206000328063965 6.758999824523926,-9.206000328063965 C6.0269999504089355,-9.607000350952148 5.303999900817871,-10.022000312805176 4.5929999351501465,-10.454999923706055z"></path></g><g opacity="1" transform="matrix(1,0,0,1,60.33700180053711,141.2779998779297)"><path fill="#747474" fill-opacity="1" d=" M1.7309999465942383,-11.291000366210938 C1.7309999465942383,-11.291000366210938 -4.145999908447266,10.644000053405762 -4.145999908447266,10.644000053405762 C-4.145999908447266,10.644000053405762 -1.7309999465942383,11.289999961853027 -1.7309999465942383,11.289999961853027 C-1.7309999465942383,11.289999961853027 4.145999908447266,-10.644000053405762 4.145999908447266,-10.644000053405762 C3.3329999446868896,-10.840999603271484 2.5290000438690186,-11.057999610900879 1.7309999465942383,-11.291000366210938z"></path></g></g></g><g mask="url(#__lottie_element_1988_1)" style="display: block;"><g transform="matrix(0.9369999766349792,0,0,0.9369999766349792,225,221.9547576904297)" opacity="1"><g opacity="1" transform="matrix(1,0,0,1,0,0)"><path fill="#FFFFFF" fill-opacity="1" d=" M0,-23 C12.70300006866455,-23 23,-12.70300006866455 23,0 C23,12.70300006866455 12.70300006866455,23 0,23 C-12.70300006866455,23 -23,12.70300006866455 -23,0 C-23,-12.70300006866455 -12.70300006866455,-23 0,-23z"></path><path fill="url(&quot;#__lottie_element_2039&quot;)" fill-opacity="1" d=" M0,-23 C12.70300006866455,-23 23,-12.70300006866455 23,0 C23,12.70300006866455 12.70300006866455,23 0,23 C-12.70300006866455,23 -23,12.70300006866455 -23,0 C-23,-12.70300006866455 -12.70300006866455,-23 0,-23z"></path></g></g></g><g transform="matrix(0.9369999766349792,0,0,0.9369999766349792,225,187.52000427246094)" opacity="1" style="display: none;"><g opacity="1" transform="matrix(1,0,0,1,0,0)"><path stroke-linecap="butt" stroke-linejoin="miter" fill-opacity="0" stroke-miterlimit="4" stroke="#CE2F55" stroke-opacity="1" stroke-width="2px" d="M0 0"></path></g></g><g mask="url(#__lottie_element_1988_1)" style="display: block;"><g transform="matrix(0.8272958993911743,0.43994373083114624,-0.43994373083114624,0.8272958993911743,260.580810546875,223.8960723876953)" opacity="1"><g opacity="1" transform="matrix(1,0,0,1,0,0)"><path fill="url(&quot;#__lottie_element_2045&quot;)" fill-opacity="1" d=" M43.018001556396484,-26.926000595092773 C43.018001556396484,-26.926000595092773 -35.82699966430664,6.182000160217285 -35.82699966430664,6.182000160217285 C-40.992000579833984,7.340000152587891 -44.452999114990234,12.319999694824219 -43.64500045776367,17.635000228881836 C-42.801998138427734,23.18899917602539 -37.61600112915039,27.006999969482422 -32.06399917602539,26.163999557495117 C-30.788999557495117,25.969999313354492 -29.606000900268555,25.54800033569336 -28.549999237060547,24.94499969482422 C-28.514999389648438,24.940000534057617 -28.479999542236328,24.93199920654297 -28.44499969482422,24.92300033569336 C-28.32200050354004,24.89299964904785 -28.198999404907227,24.833999633789062 -28.09600067138672,24.7549991607666 C-28.09600067138672,24.7549991607666 44.018001556396484,-25.173999786376953 44.018001556396484,-25.173999786376953 C44.22100067138672,-25.326000213623047 44.354000091552734,-25.542999267578125 44.40399932861328,-25.788000106811523 C44.452999114990234,-26.033000946044922 44.409000396728516,-26.29199981689453 44.27899932861328,-26.503999710083008 C44.15399932861328,-26.715999603271484 43.96200180053711,-26.878000259399414 43.73099899291992,-26.95199966430664 C43.625,-26.988000869750977 43.51499938964844,-27.006999969482422 43.40599822998047,-27.006999969482422 C43.27199935913086,-27.006999969482422 43.13999938964844,-26.979999542236328 43.018001556396484,-26.926000595092773z"></path><path stroke-linecap="butt" stroke-linejoin="miter" fill-opacity="0" stroke-miterlimit="4" stroke="#CE2F55" stroke-opacity="1" stroke-width="3px" d=" M43.018001556396484,-26.926000595092773 C43.018001556396484,-26.926000595092773 -35.82699966430664,6.182000160217285 -35.82699966430664,6.182000160217285 C-40.992000579833984,7.340000152587891 -44.452999114990234,12.319999694824219 -43.64500045776367,17.635000228881836 C-42.801998138427734,23.18899917602539 -37.61600112915039,27.006999969482422 -32.06399917602539,26.163999557495117 C-30.788999557495117,25.969999313354492 -29.606000900268555,25.54800033569336 -28.549999237060547,24.94499969482422 C-28.514999389648438,24.940000534057617 -28.479999542236328,24.93199920654297 -28.44499969482422,24.92300033569336 C-28.32200050354004,24.89299964904785 -28.198999404907227,24.833999633789062 -28.09600067138672,24.7549991607666 C-28.09600067138672,24.7549991607666 44.018001556396484,-25.173999786376953 44.018001556396484,-25.173999786376953 C44.22100067138672,-25.326000213623047 44.354000091552734,-25.542999267578125 44.40399932861328,-25.788000106811523 C44.452999114990234,-26.033000946044922 44.409000396728516,-26.29199981689453 44.27899932861328,-26.503999710083008 C44.15399932861328,-26.715999603271484 43.96200180053711,-26.878000259399414 43.73099899291992,-26.95199966430664 C43.625,-26.988000869750977 43.51499938964844,-27.006999969482422 43.40599822998047,-27.006999969482422 C43.27199935913086,-27.006999969482422 43.13999938964844,-26.979999542236328 43.018001556396484,-26.926000595092773z"></path></g></g></g><g mask="url(#__lottie_element_1988_1)" style="display: none;"><g transform="matrix(-0.2787042558193207,-0.8945909142494202,0.8945909142494202,-0.2787042558193207,201.0712432861328,195.55062866210938)" opacity="0.13029999999657207"><g opacity="1" transform="matrix(1,0,0,1,0,0)"><path stroke-linecap="butt" stroke-linejoin="miter" fill-opacity="0" stroke-miterlimit="4" stroke="#CE2F55" stroke-opacity="1" stroke-width="3px" d=" M-43.198001861572266,19.450000762939453 C-41.62300109863281,23.993999481201172 -36.987998962402344,26.91200065612793 -32.06399917602539,26.163999557495117 C-30.788999557495117,25.969999313354492 -29.606000900268555,25.54800033569336 -28.549999237060547,24.94499969482422 C-28.514999389648438,24.940000534057617 -28.479999542236328,24.93199920654297 -28.44499969482422,24.92300033569336 C-28.32200050354004,24.89299964904785 -28.198999404907227,24.833999633789062 -28.09600067138672,24.7549991607666 C-28.09600067138672,24.7549991607666 44.018001556396484,-25.173999786376953 44.018001556396484,-25.173999786376953 C44.22100067138672,-25.326000213623047 44.354000091552734,-25.542999267578125 44.40399932861328,-25.788000106811523 C44.452999114990234,-26.033000946044922 44.409000396728516,-26.29199981689453 44.27899932861328,-26.503999710083008 C44.15399932861328,-26.715999603271484 43.96200180053711,-26.878000259399414 43.73099899291992,-26.95199966430664 C43.625,-26.988000869750977 43.51499938964844,-27.006999969482422 43.40599822998047,-27.006999969482422 C43.27199935913086,-27.006999969482422 43.13999938964844,-26.979999542236328 43.018001556396484,-26.926000595092773 C43.018001556396484,-26.926000595092773 43.018001556396484,-26.926000595092773 43.018001556396484,-26.926000595092773 C43.018001556396484,-26.926000595092773 -35.82699966430664,6.182000160217285 -35.82699966430664,6.182000160217285 C-40.992000579833984,7.340000152587891 -44.452999114990234,12.319999694824219 -43.64500045776367,17.635000228881836 C-43.54999923706055,18.263999938964844 -43.39899826049805,18.8700008392334 -43.198001861572266,19.450000762939453"></path></g></g></g><g transform="matrix(0.9369993209838867,0.0000032172840747080045,-0.0000032172840747080045,0.9369993209838867,364.9025573730469,30.39352798461914)" opacity="1" style="display: block;"><g opacity="1" transform="matrix(1,0,0,1,5.690999984741211,5.690999984741211)"><path fill="#FF6633" fill-opacity="0" d=" M0,-9.942000389099121 C0,-9.942000389099121 9.942000389099121,0 9.942000389099121,0 C9.942000389099121,0 0,9.942000389099121 0,9.942000389099121 C0,9.942000389099121 -9.942000389099121,0 -9.942000389099121,0 C-9.942000389099121,0 0,-9.942000389099121 0,-9.942000389099121z"></path><path stroke-linecap="butt" stroke-linejoin="miter" fill-opacity="0" stroke-miterlimit="4" stroke="#EFEFEF" stroke-opacity="1" stroke-width="2px" d=" M0,-9.942000389099121 C0,-9.942000389099121 9.942000389099121,0 9.942000389099121,0 C9.942000389099121,0 0,9.942000389099121 0,9.942000389099121 C0,9.942000389099121 -9.942000389099121,0 -9.942000389099121,0 C-9.942000389099121,0 0,-9.942000389099121 0,-9.942000389099121z"></path></g></g><g transform="matrix(0.9370030760765076,-0.000002463945065755979,0.000002463945065755979,0.9370030760765076,63.188499450683594,342.0013122558594)" opacity="1" style="display: block;"><g opacity="1" transform="matrix(1,0,0,1,5.690999984741211,5.690999984741211)"><path fill="#FF6633" fill-opacity="0" d=" M0,-9.942000389099121 C0,-9.942000389099121 9.942000389099121,0 9.942000389099121,0 C9.942000389099121,0 0,9.942000389099121 0,9.942000389099121 C0,9.942000389099121 -9.942000389099121,0 -9.942000389099121,0 C-9.942000389099121,0 0,-9.942000389099121 0,-9.942000389099121z"></path><path stroke-linecap="butt" stroke-linejoin="miter" fill-opacity="0" stroke-miterlimit="4" stroke="#EFEFEF" stroke-opacity="1" stroke-width="2px" d=" M0,-9.942000389099121 C0,-9.942000389099121 9.942000389099121,0 9.942000389099121,0 C9.942000389099121,0 0,9.942000389099121 0,9.942000389099121 C0,9.942000389099121 -9.942000389099121,0 -9.942000389099121,0 C-9.942000389099121,0 0,-9.942000389099121 0,-9.942000389099121z"></path></g></g><g transform="matrix(0.9369993209838867,0.0000032172840747080045,-0.0000032172840747080045,0.9369993209838867,80.9915542602539,74.43252563476562)" opacity="1" style="display: block;"><g opacity="1" transform="matrix(1,0,0,1,5.690999984741211,5.690999984741211)"><path fill="#FF6633" fill-opacity="0" d=" M0,-9.942000389099121 C0,-9.942000389099121 9.942000389099121,0 9.942000389099121,0 C9.942000389099121,0 0,9.942000389099121 0,9.942000389099121 C0,9.942000389099121 -9.942000389099121,0 -9.942000389099121,0 C-9.942000389099121,0 0,-9.942000389099121 0,-9.942000389099121z"></path><path stroke-linecap="butt" stroke-linejoin="miter" fill-opacity="0" stroke-miterlimit="4" stroke="#EFEFEF" stroke-opacity="1" stroke-width="2px" d=" M0,-9.942000389099121 C0,-9.942000389099121 9.942000389099121,0 9.942000389099121,0 C9.942000389099121,0 0,9.942000389099121 0,9.942000389099121 C0,9.942000389099121 -9.942000389099121,0 -9.942000389099121,0 C-9.942000389099121,0 0,-9.942000389099121 0,-9.942000389099121z"></path></g></g><g mask="url(#__lottie_element_1988_1)" style="display: block;"><g transform="matrix(0.2444419264793396,0.9045535922050476,-0.9045535922050476,0.2444419264793396,225,225)" opacity="1"><g opacity="1" transform="matrix(1,0,0,1,0,0)"><path stroke-linecap="butt" stroke-linejoin="miter" fill-opacity="0" stroke-miterlimit="4" stroke-dasharray=" 9.1" stroke-dashoffset="0" stroke="#747474" stroke-opacity="1" stroke-width="1" d=" M0,-176.45399475097656 C-97.38495635986328,-176.45399475097656 -176.45399475097656,-97.38495635986328 -176.45399475097656,0 C-176.45399475097656,97.38495635986328 -97.38495635986328,176.45399475097656 0,176.45399475097656 C97.38495635986328,176.45399475097656 176.45399475097656,97.38495635986328 176.45399475097656,0 C176.45399475097656,-97.38495635986328 97.38495635986328,-176.45399475097656 0,-176.45399475097656z"></path></g></g></g><g mask="url(#__lottie_element_1988_1)" style="display: block;"><g transform="matrix(-0.8118741512298584,0.46779194474220276,-0.46779194474220276,-0.8118741512298584,370.9564208984375,147.00733947753906)" opacity="1"><g opacity="1" transform="matrix(1,0,0,1,0,0)"><path fill="#FFD43C" fill-opacity="1" d=" M0,-3.5999999046325684 C1.9868398904800415,-3.5999999046325684 3.5999999046325684,-1.9868398904800415 3.5999999046325684,0 C3.5999999046325684,1.9868398904800415 1.9868398904800415,3.5999999046325684 0,3.5999999046325684 C-1.9868398904800415,3.5999999046325684 -3.5999999046325684,1.9868398904800415 -3.5999999046325684,0 C-3.5999999046325684,-1.9868398904800415 -1.9868398904800415,-3.5999999046325684 0,-3.5999999046325684z"></path></g></g></g><g mask="url(#__lottie_element_1988_1)" style="display: block;"><g transform="matrix(-0.8118741512298584,0.46779194474220276,-0.46779194474220276,-0.8118741512298584,197.466064453125,61.50851821899414)" opacity="1"><g opacity="1" transform="matrix(1,0,0,1,0,0)"><path fill="#FF6633" fill-opacity="1" d=" M0,-3.5999999046325684 C1.9868398904800415,-3.5999999046325684 3.5999999046325684,-1.9868398904800415 3.5999999046325684,0 C3.5999999046325684,1.9868398904800415 1.9868398904800415,3.5999999046325684 0,3.5999999046325684 C-1.9868398904800415,3.5999999046325684 -3.5999999046325684,1.9868398904800415 -3.5999999046325684,0 C-3.5999999046325684,-1.9868398904800415 -1.9868398904800415,-3.5999999046325684 0,-3.5999999046325684z"></path></g></g></g><g mask="url(#__lottie_element_1988_1)" style="display: block;"><g transform="matrix(-0.8118741512298584,0.46779194474220276,-0.46779194474220276,-0.8118741512298584,86.8052978515625,316.1387939453125)" opacity="1"><g opacity="1" transform="matrix(1,0,0,1,0,0)"><path fill="#3E74FF" fill-opacity="1" d=" M0,-3.5999999046325684 C1.9868398904800415,-3.5999999046325684 3.5999999046325684,-1.9868398904800415 3.5999999046325684,0 C3.5999999046325684,1.9868398904800415 1.9868398904800415,3.5999999046325684 0,3.5999999046325684 C-1.9868398904800415,3.5999999046325684 -3.5999999046325684,1.9868398904800415 -3.5999999046325684,0 C-3.5999999046325684,-1.9868398904800415 -1.9868398904800415,-3.5999999046325684 0,-3.5999999046325684z"></path></g></g></g><g mask="url(#__lottie_element_1988_1)" style="display: block;"><g transform="matrix(0.2444419264793396,-0.9045535922050476,0.9045535922050476,0.2444419264793396,225,225)" opacity="1"><g opacity="1" transform="matrix(1,0,0,1,0,0)"><path stroke-linecap="butt" stroke-linejoin="miter" fill-opacity="0" stroke-miterlimit="4" stroke-dasharray=" 10" stroke-dashoffset="0" stroke="#747474" stroke-opacity="1" stroke-width="1" d=" M0,-150 C82.78500366210938,-150 150,-82.78500366210938 150,0 C150,82.78500366210938 82.78500366210938,150 0,150 C-82.78500366210938,150 -150,82.78500366210938 -150,0 C-150,-82.78500366210938 -82.78500366210938,-150 0,-150z"></path></g></g></g><g mask="url(#__lottie_element_1988_1)" style="display: block;"><g transform="matrix(-0.8118741512298584,-0.46779194474220276,0.46779194474220276,-0.8118741512298584,359.5085754394531,265.97216796875)" opacity="1"><g opacity="1" transform="matrix(1,0,0,1,0,0)"><path fill="#F6821F" fill-opacity="1" d=" M0,-3.5999999046325684 C1.9868398904800415,-3.5999999046325684 3.5999999046325684,-1.9868398904800415 3.5999999046325684,0 C3.5999999046325684,1.9868398904800415 1.9868398904800415,3.5999999046325684 0,3.5999999046325684 C-1.9868398904800415,3.5999999046325684 -3.5999999046325684,1.9868398904800415 -3.5999999046325684,0 C-3.5999999046325684,-1.9868398904800415 -1.9868398904800415,-3.5999999046325684 0,-3.5999999046325684z"></path></g></g></g><g mask="url(#__lottie_element_1988_1)" style="display: block;"><g transform="matrix(-0.8118741512298584,-0.46779194474220276,0.46779194474220276,-0.8118741512298584,138.4293212890625,114.37081909179688)" opacity="1"><g opacity="1" transform="matrix(1,0,0,1,0,0)"><path fill="#960C3E" fill-opacity="1" d=" M0,-3.5999999046325684 C1.9868398904800415,-3.5999999046325684 3.5999999046325684,-1.9868398904800415 3.5999999046325684,0 C3.5999999046325684,1.9868398904800415 1.9868398904800415,3.5999999046325684 0,3.5999999046325684 C-1.9868398904800415,3.5999999046325684 -3.5999999046325684,1.9868398904800415 -3.5999999046325684,0 C-3.5999999046325684,-1.9868398904800415 -1.9868398904800415,-3.5999999046325684 0,-3.5999999046325684z"></path></g></g></g><g mask="url(#__lottie_element_1988_1)" style="display: block;"><g transform="matrix(0.2694131135940552,0.8974327445030212,-0.8974327445030212,0.2694131135940552,212.0352783203125,364.8763427734375)" opacity="1"><g opacity="1" transform="matrix(1,0,0,1,0,0)"><path fill="#FBAD41" fill-opacity="1" d=" M0,-3.5999999046325684 C1.9868398904800415,-3.5999999046325684 3.5999999046325684,-1.9868398904800415 3.5999999046325684,0 C3.5999999046325684,1.9868398904800415 1.9868398904800415,3.5999999046325684 0,3.5999999046325684 C-1.9868398904800415,3.5999999046325684 -3.5999999046325684,1.9868398904800415 -3.5999999046325684,0 C-3.5999999046325684,-1.9868398904800415 -1.9868398904800415,-3.5999999046325684 0,-3.5999999046325684z"></path></g></g></g><g mask="url(#__lottie_element_1988_1)" style="display: block;"><g transform="matrix(0.12285397201776505,0.9289110898971558,-0.9289110898971558,0.12285397201776505,189.8950958251953,361.01837158203125)" opacity="1"><g opacity="1" transform="matrix(1,0,0,1,0,0)"><path fill="#F6821F" fill-opacity="1" d=" M0,-3.5999999046325684 C1.9868398904800415,-3.5999999046325684 3.5999999046325684,-1.9868398904800415 3.5999999046325684,0 C3.5999999046325684,1.9868398904800415 1.9868398904800415,3.5999999046325684 0,3.5999999046325684 C-1.9868398904800415,3.5999999046325684 -3.5999999046325684,1.9868398904800415 -3.5999999046325684,0 C-3.5999999046325684,-1.9868398904800415 -1.9868398904800415,-3.5999999046325684 0,-3.5999999046325684z"></path></g></g></g><g mask="url(#__lottie_element_1988_1)" style="display: block;"><g transform="matrix(-0.015323097817599773,0.9368746280670166,-0.9368746280670166,-0.015323097817599773,170.24208068847656,354.3640441894531)" opacity="1"><g opacity="1" transform="matrix(1,0,0,1,0,0)"><path fill="#FF6633" fill-opacity="1" d=" M0,-3.5999999046325684 C1.9868398904800415,-3.5999999046325684 3.5999999046325684,-1.9868398904800415 3.5999999046325684,0 C3.5999999046325684,1.9868398904800415 1.9868398904800415,3.5999999046325684 0,3.5999999046325684 C-1.9868398904800415,3.5999999046325684 -3.5999999046325684,1.9868398904800415 -3.5999999046325684,0 C-3.5999999046325684,-1.9868398904800415 -1.9868398904800415,-3.5999999046325684 0,-3.5999999046325684z"></path></g></g></g><g mask="url(#__lottie_element_1988_1)" style="display: block;"><g transform="matrix(-0.8118741512298584,-0.46779194474220276,0.46779194474220276,-0.8118741512298584,85.10698699951172,236.0070037841797)" opacity="1"><g opacity="1" transform="matrix(1,0,0,1,0,0)"><path fill="#A8CBFF" fill-opacity="1" d=" M0,-3.5999999046325684 C1.9868398904800415,-3.5999999046325684 3.5999999046325684,-1.9868398904800415 3.5999999046325684,0 C3.5999999046325684,1.9868398904800415 1.9868398904800415,3.5999999046325684 0,3.5999999046325684 C-1.9868398904800415,3.5999999046325684 -3.5999999046325684,1.9868398904800415 -3.5999999046325684,0 C-3.5999999046325684,-1.9868398904800415 -1.9868398904800415,-3.5999999046325684 0,-3.5999999046325684z"></path></g></g></g></g></svg>